<svg width="40" height="41" viewBox="0 0 40 41" fill="none" xmlns="http://www.w3.org/2000/svg">
<path d="M30.6666 36.9579L31.0848 35.6705L30.5034 35.4753L29.9789 35.7963L30.6666 36.9579ZM35.9999 31.5353L34.8767 30.8046L34.5333 31.3507L34.7354 31.9651L35.9999 31.5353ZM38.6666 39.6442L38.2485 40.9315C38.7277 41.0925 39.2549 40.9646 39.6111 40.601C39.9674 40.2377 40.0911 39.7011 39.9311 39.2144L38.6666 39.6442ZM29.9789 35.7963C27.429 37.3575 23.3508 38.2885 20 38.2885V40.9998C23.6944 40.9998 28.2829 39.9994 31.3544 38.1194L29.9789 35.7963ZM20 38.2885C10.4262 38.2885 2.66666 30.4034 2.66666 20.678H0C0 31.9024 8.95511 40.9998 20 40.9998V38.2885ZM2.66666 20.678C2.66666 10.9526 10.4262 3.06698 20 3.06698V0.355713C8.95508 0.355713 0 9.45354 0 20.678H2.66666ZM20 3.06698C29.5738 3.06698 37.3333 10.9526 37.3333 20.678H39.9999C39.9999 9.45354 31.0448 0.355713 20 0.355713V3.06698ZM37.3333 20.678C37.3333 24.2861 36.5447 28.1541 34.8767 30.8046L37.1231 32.266C39.1618 29.026 39.9999 24.586 39.9999 20.678H37.3333ZM30.2485 38.2452L38.2485 40.9315L39.0847 38.3571L31.0848 35.6705L30.2485 38.2452ZM39.9311 39.2144L37.2645 31.1056L34.7354 31.9651L37.4021 40.0742L39.9311 39.2144Z" fill="black"/>
</svg>
