<svg width="40" height="38" viewBox="0 0 40 38" fill="none" xmlns="http://www.w3.org/2000/svg">
<path d="M20 35.6407L19.0572 36.6489C19.5779 37.2054 20.4221 37.2054 20.9428 36.6489L20 35.6407ZM20 7.12813L19.0572 8.13619C19.5779 8.69296 20.4221 8.69296 20.9428 8.13619L20 7.12813ZM20.9428 34.6325L5.03757 17.6264L3.15195 19.6425L19.0572 36.6489L20.9428 34.6325ZM34.9624 17.6264L19.0572 34.6325L20.9428 36.6489L36.848 19.6425L34.9624 17.6264ZM16.4853 5.38627L19.0572 8.13619L20.9428 6.12007L18.3709 3.37012L16.4853 5.38627ZM20.9428 8.13619L23.5147 5.38627L21.6291 3.37012L19.0572 6.12007L20.9428 8.13619ZM29.2387 0C26.3845 0 23.6473 1.21227 21.6291 3.37012L23.5147 5.38627C25.0328 3.76311 27.0917 2.85125 29.2387 2.85125V0ZM37.3333 11.5063C37.3333 13.8018 36.4805 16.0033 34.9624 17.6264L36.848 19.6425C38.8661 17.4847 40 14.558 40 11.5063H37.3333ZM40 11.5063C40 5.15156 35.1819 0 29.2387 0V2.85125C33.7091 2.85125 37.3333 6.72625 37.3333 11.5063H40ZM10.7614 2.85125C12.9083 2.85125 14.9672 3.76311 16.4853 5.38627L18.3709 3.37012C16.3527 1.21227 13.6155 0 10.7614 0V2.85125ZM2.66667 11.5063C2.66667 6.72625 6.2908 2.85125 10.7614 2.85125V0C4.81805 0 0 5.15156 0 11.5063H2.66667ZM5.03757 17.6264C3.51949 16.0033 2.66667 13.8018 2.66667 11.5063H0C0 14.558 1.13379 17.4847 3.15195 19.6425L5.03757 17.6264Z" fill="black"/>
</svg>
