<svg width="52" height="52" viewBox="0 0 52 52" fill="none" xmlns="http://www.w3.org/2000/svg">
<path d="M17.3335 19.0667C17.3335 14.2802 21.2137 10.4 26.0002 10.4C30.7866 10.4 34.6668 14.2802 34.6668 19.0667C34.6668 23.8531 30.7866 27.7333 26.0002 27.7333C21.2137 27.7333 17.3335 23.8531 17.3335 19.0667Z" fill="white"/>
<path fill-rule="evenodd" clip-rule="evenodd" d="M26 0C11.6406 0 0 11.6406 0 26C0 40.3593 11.6406 52 26 52C40.3593 52 52 40.3593 52 26C52 11.6406 40.3593 0 26 0ZM3.46667 26C3.46667 13.5552 13.5552 3.46667 26 3.46667C38.445 3.46667 48.5333 13.5552 48.5333 26C48.5333 32.4118 45.8553 38.1982 41.5567 42.3017C41.0332 36.0831 35.8204 31.2 29.4667 31.2H22.5333C16.1798 31.2 10.9666 36.0831 10.4432 42.3017C6.1447 38.1982 3.46667 32.4118 3.46667 26Z" fill="white"/>
</svg>
